<svg width="64" height="64" viewBox="0 0 64 64" fill="none" xmlns="http://www.w3.org/2000/svg">
<path d="M14 38C10.69 38 8 35.31 8 32C8 28.69 10.69 26 14 26C17.31 26 20 28.69 20 32C20 35.31 17.31 38 14 38ZM50 26C46.69 26 44 28.69 44 32C44 35.31 46.69 38 50 38C53.31 38 56 35.31 56 32C56 28.69 53.31 26 50 26ZM32 20C35.31 20 38 17.31 38 14C38 10.69 35.31 8 32 8C28.69 8 26 10.69 26 14C26 17.31 28.69 20 32 20ZM32 44C28.69 44 26 46.69 26 50C26 53.31 28.69 56 32 56C35.31 56 38 53.31 38 50C38 46.69 35.31 44 32 44ZM52 16.24L47.76 12L32 27.76L16.24 12L12 16.24L27.76 32L12 47.76L16.24 52L32 36.24L47.76 52L52 47.76L36.24 32L52 16.24Z" fill="#8C8982"/>
</svg>
