<svg width="16" height="16" viewBox="0 0 16 16" fill="none" xmlns="http://www.w3.org/2000/svg">
<path d="M6 14C7.104 14 8 13.104 8 12V10H6C4.896 10 4 10.896 4 12C4 13.104 4.896 14 6 14Z" fill="#0ACF83"/>
<path d="M4 8C4 6.896 4.896 6 6 6H8V10H6C4.896 10 4 9.104 4 8Z" fill="#A259FF"/>
<path d="M4 4C4 2.896 4.896 2 6 2H8V6H6C4.896 6 4 5.104 4 4Z" fill="#F24E1E"/>
<path d="M8 2H10C11.104 2 12 2.896 12 4C12 5.104 11.104 6 10 6H8V2Z" fill="#FF7262"/>
<path d="M12 8C12 9.104 11.104 10 10 10C8.896 10 8 9.104 8 8C8 6.896 8.896 6 10 6C11.104 6 12 6.896 12 8Z" fill="#1ABCFE"/>
</svg>
