<svg width="16" height="16" viewBox="0 0 16 16" fill="none" xmlns="http://www.w3.org/2000/svg">
<g clip-path="url(#clip0_110_95)">
<path fill-rule="evenodd" clip-rule="evenodd" d="M8 2C4.685 2 2 4.685 2 8C2 10.655 3.7175 12.8975 6.1025 13.6925C6.4025 13.745 6.515 13.565 6.515 13.4075C6.515 13.265 6.5075 12.7925 6.5075 12.29C5 12.5675 4.61 11.9225 4.49 11.585C4.4225 11.4125 4.13 10.88 3.875 10.7375C3.665 10.625 3.365 10.3475 3.8675 10.34C4.34 10.3325 4.6775 10.775 4.79 10.955C5.33 11.8625 6.1925 11.6075 6.5375 11.45C6.59 11.06 6.7475 10.7975 6.92 10.6475C5.585 10.4975 4.19 9.98 4.19 7.685C4.19 7.0325 4.4225 6.4925 4.805 6.0725C4.745 5.9225 4.535 5.3075 4.865 4.4825C4.865 4.4825 5.3675 4.325 6.515 5.0975C6.995 4.9625 7.505 4.895 8.015 4.895C8.525 4.895 9.035 4.9625 9.515 5.0975C10.6625 4.3175 11.165 4.4825 11.165 4.4825C11.495 5.3075 11.285 5.9225 11.225 6.0725C11.6075 6.4925 11.84 7.025 11.84 7.685C11.84 9.9875 10.4375 10.4975 9.1025 10.6475C9.32 10.835 9.5075 11.195 9.5075 11.7575C9.5075 12.56 9.5 13.205 9.5 13.4075C9.5 13.565 9.6125 13.7525 9.9125 13.6925C12.2825 12.8975 14 10.6475 14 8C14 4.685 11.315 2 8 2Z" fill="#1B1F23"/>
</g>
<defs>
<clipPath id="clip0_110_95">
<rect width="12" height="12" fill="white" transform="translate(2 2)"/>
</clipPath>
</defs>
</svg>
