<svg width="16" height="16" viewBox="0 0 16 16" fill="none" xmlns="http://www.w3.org/2000/svg">
<g clip-path="url(#clip0_102_137)">
<path fill-rule="evenodd" clip-rule="evenodd" d="M4.24875 4.13555C4.62007 4.43723 4.75936 4.41421 5.45664 4.36768L12.0301 3.97298C12.1695 3.97298 12.0536 3.83389 12.0071 3.81078L10.9154 3.02156C10.7062 2.85915 10.4275 2.67316 9.89337 2.71969L3.52827 3.18394C3.29613 3.20695 3.24977 3.32302 3.34221 3.41605L4.24875 4.13555ZM4.64341 5.6675V12.5839C4.64341 12.9556 4.82916 13.0947 5.24724 13.0717L12.4715 12.6537C12.8898 12.6307 12.9364 12.375 12.9364 12.0731V5.20304C12.9364 4.90157 12.8204 4.739 12.5644 4.7622L5.01494 5.20304C4.73632 5.22645 4.64339 5.36582 4.64339 5.6675H4.64341ZM11.7752 6.03851C11.8215 6.2476 11.7752 6.45651 11.5657 6.48002L11.2176 6.54938V11.6555C10.9154 11.818 10.6367 11.9108 10.4045 11.9108C10.0327 11.9108 9.93955 11.7947 9.66105 11.4467L7.38421 7.87239V11.3307L8.1047 11.4932C8.1047 11.4932 8.1047 11.9108 7.52342 11.9108L5.92096 12.0038C5.87441 11.9108 5.92096 11.6789 6.08351 11.6325L6.50168 11.5166V6.94406L5.92108 6.89753C5.87451 6.68844 5.99048 6.38695 6.31593 6.36355L8.03499 6.24767L10.4045 9.86855V6.66542L9.80035 6.59609C9.75398 6.34047 9.93955 6.15486 10.1719 6.13184L11.7752 6.03851ZM2.99384 2.55731L9.61457 2.06973C10.4276 2 10.6368 2.04672 11.1478 2.41792L13.2612 3.90334C13.61 4.15877 13.7262 4.22832 13.7262 4.50677V12.6537C13.7262 13.1643 13.5402 13.4662 12.8899 13.5124L5.20123 13.9767C4.71307 14 4.48075 13.9304 4.2251 13.6053L2.66875 11.586C2.3899 11.2143 2.27393 10.9362 2.27393 10.6109V3.36936C2.27393 2.95182 2.45998 2.60353 2.99384 2.55731V2.55731Z" fill="black"/>
</g>
<defs>
<clipPath id="clip0_102_137">
<rect width="12" height="12" fill="white" transform="translate(2 2)"/>
</clipPath>
</defs>
</svg>
