<svg width="64" height="64" viewBox="0 0 64 64" fill="none" xmlns="http://www.w3.org/2000/svg">
<path d="M52 29.53C52 30.09 51.62 30.58 50.93 30.75L48.44 31.37L47.44 37.38C47.16 39.03 46.08 39.99 44.59 39.99C44.29 39.99 43.97 39.95 43.64 39.87L38.01 38.46V41.99L43.12 52.2C43.71 53.38 44.01 54.67 44.01 55.99H16.01C16.01 50.53 20.01 45.99 26.01 42.99V36.25C21.25 33.73 18.01 28.74 18.01 22.99C18.01 14.71 24.73 7.98999 33.01 7.98999C41.29 7.98999 48.01 14.71 48.01 22.99C48.01 23.22 47.99 23.45 47.98 23.68L51.69 28.63C51.91 28.92 52.01 29.23 52.01 29.52L52 29.53Z" fill="#737373"/>
</svg>
