<svg width="16" height="16" viewBox="0 0 16 16" fill="none" xmlns="http://www.w3.org/2000/svg">
<g clip-path="url(#clip0_102_142)">
<path d="M4.57017 9.55906C4.57017 10.2488 4.01269 10.8063 3.32293 10.8063C2.63316 10.8063 2.07568 10.2488 2.07568 9.55906C2.07568 8.86929 2.63316 8.31181 3.32293 8.31181H4.57017V9.55906ZM5.19379 9.55906C5.19379 8.86929 5.75127 8.31181 6.44104 8.31181C7.1308 8.31181 7.68828 8.86929 7.68828 9.55906V12.6772C7.68828 13.3669 7.1308 13.9244 6.44104 13.9244C5.75127 13.9244 5.19379 13.3669 5.19379 12.6772V9.55906Z" fill="#E01E5A"/>
<path d="M6.44097 4.55117C5.7512 4.55117 5.19372 3.99369 5.19372 3.30393C5.19372 2.61417 5.7512 2.05669 6.44097 2.05669C7.13073 2.05669 7.68821 2.61417 7.68821 3.30393V4.55117H6.44097ZM6.44097 5.18425C7.13073 5.18425 7.68821 5.74173 7.68821 6.43149C7.68821 7.12125 7.13073 7.67873 6.44097 7.67873H3.31341C2.62364 7.67873 2.06616 7.12125 2.06616 6.43149C2.06616 5.74173 2.62364 5.18425 3.31341 5.18425H6.44097Z" fill="#36C5F0"/>
<path d="M11.4394 6.43149C11.4394 5.74173 11.9969 5.18425 12.6866 5.18425C13.3764 5.18425 13.9339 5.74173 13.9339 6.43149C13.9339 7.12125 13.3764 7.67873 12.6866 7.67873H11.4394V6.43149ZM10.8158 6.43149C10.8158 7.12125 10.2583 7.67873 9.56853 7.67873C8.87877 7.67873 8.32129 7.12125 8.32129 6.43149V3.30393C8.32129 2.61417 8.87877 2.05669 9.56853 2.05669C10.2583 2.05669 10.8158 2.61417 10.8158 3.30393V6.43149V6.43149Z" fill="#2EB67D"/>
<path d="M9.56853 11.4299C10.2583 11.4299 10.8158 11.9874 10.8158 12.6772C10.8158 13.3669 10.2583 13.9244 9.56853 13.9244C8.87877 13.9244 8.32129 13.3669 8.32129 12.6772V11.4299H9.56853ZM9.56853 10.8063C8.87877 10.8063 8.32129 10.2488 8.32129 9.55906C8.32129 8.86929 8.87877 8.31181 9.56853 8.31181H12.6961C13.3859 8.31181 13.9433 8.86929 13.9433 9.55906C13.9433 10.2488 13.3859 10.8063 12.6961 10.8063H9.56853Z" fill="#ECB22E"/>
</g>
<defs>
<clipPath id="clip0_102_142">
<rect width="12" height="12" fill="white" transform="translate(2 2)"/>
</clipPath>
</defs>
</svg>
