<svg width="64" height="64" viewBox="0 0 64 64" fill="none" xmlns="http://www.w3.org/2000/svg">
<path d="M35 21H43.63L41.32 18.69C38.2 15.57 34.1 14 30.01 14C21.17 14 14.01 21.16 14.01 30H8.01C8.01 17.85 17.86 7.99999 30.01 7.99999C35.64 7.99999 41.27 10.15 45.57 14.44L48.01 16.88V7.98999H54.01V26.99H35.01V20.99L35 21ZM50 36C44.48 36 40 40.48 40 46C40 51.52 44.48 56 50 56C55.52 56 60 51.52 60 46C60 40.48 55.52 36 50 36ZM24 46C24 51.52 19.52 56 14 56C8.48 56 4 51.52 4 46C4 40.48 8.48 36 14 36C19.52 36 24 40.48 24 46ZM18 46C18 43.79 16.21 42 14 42C11.79 42 10 43.79 10 46C10 48.21 11.79 50 14 50C16.21 50 18 48.21 18 46Z" fill="#8C8982"/>
</svg>
